<?xml version="1.0" encoding="UTF-8" standalone="no"?>
<!-- Created with Inkscape (http://www.inkscape.org/) -->

<svg
   width="210mm"
   height="297mm"
   viewBox="0 0 210 297"
   version="1.1"
   id="svg1"
   xmlns:inkscape="http://www.inkscape.org/namespaces/inkscape"
   xmlns:sodipodi="http://sodipodi.sourceforge.net/DTD/sodipodi-0.dtd"
   xmlns="http://www.w3.org/2000/svg"
   xmlns:svg="http://www.w3.org/2000/svg">
  <sodipodi:namedview
     id="namedview1"
     pagecolor="#ffffff"
     bordercolor="#000000"
     borderopacity="0.25"
     inkscape:showpageshadow="2"
     inkscape:pageopacity="0.0"
     inkscape:pagecheckerboard="0"
     inkscape:deskcolor="#d1d1d1"
     inkscape:document-units="mm" />
  <defs
     id="defs1" />
  <g
     inkscape:label="Capa 1"
     inkscape:groupmode="layer"
     id="layer1">
    <g
       id="g2-5-0"
       transform="matrix(1.4689872,0,0,1.4689872,-54.993135,-183.55553)"
       style="stroke-width:1;stroke-dasharray:none">
      <path
         style="fill:#fecd5d;fill-opacity:1;stroke:#031322;stroke-width:1;stroke-dasharray:none;stroke-opacity:0"
         d="m 104.19891,161.22749 c -24.487127,2.7657 -46.712619,24.98113 -56.607372,47.55019 -6.623713,15.1081 -5.850396,35.07465 2.264296,49.4371 10.709239,18.95463 32.656476,34.31638 54.343076,36.22872 22.83838,2.0139 50.90751,-8.08445 63.02287,-27.54892 13.24177,-21.27416 10.14992,-54.01759 -3.39644,-75.09911 -12.07407,-18.79027 -37.43244,-33.07469 -59.62643,-30.56798 z"
         id="path3-4-85-2"
         sodipodi:nodetypes="aaaaaaa" />
      <path
         style="fill:#000000;fill-opacity:1;stroke:#031322;stroke-width:1;stroke-dasharray:none"
         d="m 84.386329,180.09661 c 1.055498,-3.91702 8.72127,-3.66543 9.057178,0.37738 0.970307,11.67808 3.026681,24.77196 3.243056,39.63014 0.214694,14.74274 0.734358,18.42069 0.908148,33.95945 0.0373,3.33393 -8.714839,3.4278 -10.000633,0.18869 -2.385909,-12.44602 -2.483728,-25.73169 -3.478042,-38.6667 -0.871315,-15.69828 -2.190994,-26.35497 0.270293,-35.48896 z"
         id="path1-4-2-4"
         sodipodi:nodetypes="sssssss" />
      <path
         style="fill:#000000;fill-opacity:1;stroke:#031322;stroke-width:1;stroke-dasharray:none"
         d="m 132.01165,176.45096 c 1.0555,-3.91702 8.72127,-3.66543 9.05718,0.37738 0.97031,11.67808 3.02668,24.77196 3.24305,39.63014 0.2147,14.74274 0.73436,18.42069 0.90815,33.95944 0.0373,3.33393 -8.71484,3.4278 -10.00063,0.18869 -2.38591,-12.44601 -2.48373,-25.73168 -3.47804,-38.6667 -0.87132,-15.69827 -2.191,-26.35496 0.27029,-35.48895 z"
         id="path1-6-9-82-4"
         sodipodi:nodetypes="sssssss" />
      <path
         style="fill:#000000;fill-opacity:1;stroke:#031322;stroke-width:1;stroke-dasharray:none"
         d="m 64.542293,258.62774 c 4.3277,-8.89851 17.337634,10.23263 27.01189,12.31141 17.026697,3.65865 35.358577,4.0311 52.245527,-0.22622 8.65896,-2.18298 19.26642,-20.38237 23.64258,-12.59826 4.53026,8.0582 -14.95555,11.65561 -23.86182,14.13275 -16.68114,4.63961 -35.10266,4.4372 -51.941441,0.40707 -9.891319,-2.36735 -31.544969,-4.8804 -27.096736,-14.02675 z"
         id="path4-3-8-8"
         sodipodi:nodetypes="aaaaaaa" />
    </g>
  </g>
</svg>
