<?xml version="1.0" encoding="UTF-8" standalone="no"?>
<!-- Created with Inkscape (http://www.inkscape.org/) -->

<svg
   width="210mm"
   height="297mm"
   viewBox="0 0 210 297"
   version="1.1"
   id="svg1"
   inkscape:export-filename="ASCO.svg"
   inkscape:export-xdpi="96"
   inkscape:export-ydpi="96"
   xmlns:inkscape="http://www.inkscape.org/namespaces/inkscape"
   xmlns:sodipodi="http://sodipodi.sourceforge.net/DTD/sodipodi-0.dtd"
   xmlns:xlink="http://www.w3.org/1999/xlink"
   xmlns="http://www.w3.org/2000/svg"
   xmlns:svg="http://www.w3.org/2000/svg">
  <sodipodi:namedview
     id="namedview1"
     pagecolor="#ffffff"
     bordercolor="#000000"
     borderopacity="0.25"
     inkscape:showpageshadow="2"
     inkscape:pageopacity="0.0"
     inkscape:pagecheckerboard="0"
     inkscape:deskcolor="#d1d1d1"
     inkscape:document-units="mm" />
  <defs
     id="defs1">
    <linearGradient
       inkscape:collect="always"
       xlink:href="#linearGradient14"
       id="linearGradient4"
       gradientUnits="userSpaceOnUse"
       x1="296.30008"
       y1="458.86182"
       x2="294.66022"
       y2="325.62717" />
    <linearGradient
       id="linearGradient14"
       inkscape:collect="always">
      <stop
         style="stop-color:#8329b2;stop-opacity:1;"
         offset="0.61000001"
         id="stop14" />
      <stop
         style="stop-color:#6730e8;stop-opacity:1;"
         offset="0.84799999"
         id="stop15" />
    </linearGradient>
  </defs>
  <g
     inkscape:label="Capa 1"
     inkscape:groupmode="layer"
     id="layer1">
    <g
       id="g6-5-8"
       transform="matrix(1.5677839,0,0,1.5677839,-356.02344,-460.73567)">
      <path
         style="fill:#8329b2;fill-opacity:1;fill-rule:nonzero;stroke:url(#linearGradient4);stroke-width:0.465;stroke-opacity:0"
         d="m 289.75694,325.98651 c -24.48713,2.7657 -46.71262,24.98113 -56.60738,47.55019 -6.62371,15.1081 -5.85039,35.07465 2.2643,49.4371 10.70924,18.95463 32.65648,34.31638 54.34308,36.22872 22.83838,2.0139 50.90751,-8.08445 63.02287,-27.54892 13.24177,-21.27416 10.14992,-54.01759 -3.39644,-75.09911 -12.07407,-18.79027 -37.43244,-33.07469 -59.62643,-30.56798 z"
         id="path3-4-1-5-7-8"
         sodipodi:nodetypes="aaaaaaa"
         inkscape:label="path3-4-1-5" />
      <path
         style="fill:#000000;fill-opacity:1;stroke:#031322;stroke-width:0.245602"
         d="m 253.97862,353.70891 c -2.21296,0.52812 -3.18981,-3.05751 -1.11202,-4.25718 6.00189,-3.46537 12.59131,-7.79562 20.37493,-11.73706 7.72314,-3.9108 9.58242,-5.10051 17.73016,-9.19837 1.74814,-0.87923 3.06389,3.116 1.54626,4.54409 -6.20098,4.31407 -13.17466,7.79443 -19.83418,11.59584 -8.13072,4.45945 -13.54484,7.82116 -18.70515,9.05268 z"
         id="path1-4-0-6-58-9"
         sodipodi:nodetypes="sssssss"
         inkscape:label="path1-4-0-6" />
      <path
         style="fill:#000000;fill-opacity:1;stroke:#031322;stroke-width:0.245533"
         d="m 344.02565,350.23524 c 2.2117,0.52813 3.188,-3.05751 1.11139,-4.25719 -5.99849,-3.46538 -12.58417,-7.79564 -20.36338,-11.73709 -7.71875,-3.91081 -9.57698,-5.10052 -17.7201,-9.19839 -1.74715,-0.87924 -3.06215,3.116 -1.54538,4.5441 6.19746,4.31408 13.16719,7.79445 19.82293,11.59587 8.12611,4.45946 13.53715,7.82118 18.69454,9.0527 z"
         id="path1-4-0-6-5-9-2"
         sodipodi:nodetypes="sssssss"
         inkscape:label="path1-4-0-6" />
      <path
         style="fill:#000000;fill-opacity:1;stroke:#031322;stroke-width:0.465"
         d="m 317.56968,340.32979 c 1.0555,-3.91702 8.72127,-3.66543 9.05718,0.37738 0.97031,11.67808 3.02668,24.77196 3.24305,39.63014 0.2147,14.74274 0.73436,18.42069 0.90815,33.95944 0.0373,3.33393 -8.71484,3.4278 -10.00063,0.18869 -2.38591,-12.44601 -2.48373,-25.73168 -3.47804,-38.6667 -0.87132,-15.69827 -2.191,-26.35496 0.27029,-35.48895 z m -44.85693,3.46006 c 1.0555,-3.91702 8.72127,-3.66543 9.05718,0.37738 0.97031,11.67808 3.02668,24.77196 3.24305,39.63014 0.2147,14.74274 0.73436,18.42069 0.90815,33.95944 0.0373,3.33393 -8.71484,3.4278 -10.00063,0.18869 -2.38591,-12.44601 -2.48373,-25.73168 -3.47804,-38.6667 -0.87132,-15.69827 -2.191,-26.35496 0.27029,-35.48895 z"
         id="path1-6-9-8-7-3-2"
         sodipodi:nodetypes="sssssss" />
      <path
         style="fill:#000000;fill-opacity:1;stroke:#031322;stroke-width:0.197616"
         d="m 337.74623,427.21391 c 6.061,19.33321 -21.86113,15.04736 -34.44227,18.36139 -7.62884,2.00953 -16.03279,2.6169 -23.65961,0.59973 -5.41078,-1.43106 -13.55506,-3.13242 -14.37998,-8.66812 -0.59893,-4.01911 4.57691,-7.13212 8.15182,-9.06395 15.23254,-8.23143 34.24873,-10.6629 51.33996,-7.89228 4.80374,0.77872 10.87642,-0.0788 12.99008,6.66323 z"
         id="path4-3-1-44-0-3"
         sodipodi:nodetypes="saaaaas" />
    </g>
  </g>
</svg>
